# xmcd
#
# Track frame offsets: 
#        150
#        18524
#        40081
#        53566
#        68173
#        87753
#        101155
#        119128
#        142837
#        163810
#        176409
#        185887
#        204400
#        225950
#        239628
#        256951
#        275814
#        291772
#        307255
#        330933
#        343789
#
# Disc length: 4652 seconds
#
# Revision: 0
# Processed by: cddbd v1.5.2PL0 Copyright (c) Steve Scherf et al.
# Submitted via: ExactAudioCopy v0.99pb3
#
DISCID=39122a15
DTITLE=Various Artist - A Tribute To The Legendary Blues Mandolin Man - James
DTITLE="Yank" Rachell
DYEAR=2008
DGENRE=Blues
TTITLE0=Tim O'Brien, David Grier, Jake Hopping - Texas Tony
TTITLE1=Rich DelGrosso, Ernie Scarbrough, David Kida - Shotgun Blues
TTITLE2=Karen Irwin, Craig Peterson, Scott Ballantine, Craig "Redman" 
TTITLE2=Smith, Jerome Mills, Guy Vreeman - She Caught The Katy
TTITLE3=Jerome Mills, David Clawson, Scott Ballantine, Wes Beam, Mike 
TTITLE3=Butler - Moonshine Whiskey
TTITLE4=John Sebastian - Sebastian Speaks
TTITLE5=John Sebastian, David Grisman - Tappin' That Thing
TTITLE6=Andra Faye - My Baby's Gone
TTITLE7=Peter Rowan, Lowell Levinger - Sitting On Top Of The World
TTITLE8=Greg Ashby, Jason Brolin, Dan Holmes, Alan Stratyner, Tim Mess
TTITLE8=ersmith, Tim Duffy, Mike Butler - Divin' Duck
TTITLE9=Mike Seeger - Deep Elam Blues
TTITLE10=Karen Irwin, Scott Ballantine - My Mind Gone Bad
TTITLE11=Stanley Smith, Robby Gjersoe, David Hamburger, Ryan Gould, St
TTITLE11=ephen Doster - Bluesy Little Tune
TTITLE12=Steve Brown, Allan Statyner, Tim Duffy, Tim Messersmith, Dan 
TTITLE12=Holmes, Mike Butler - Depression Blues
TTITLE13=Curtis Buckhannon, Dave Landreth, Judith Waters, Leslie J Lew
TTITLE13=is, Rush McCallister - Gonna Get Up In The Morning
TTITLE14=Orville Johnson - Let Me Tangle In Your Potato Vines
TTITLE15=Jim Richter, Gordon Bonham - Brownsville Blues
TTITLE16=Bert Deivert, Janne Zander, Dan Magnusson, Mats Qwarfordt - S
TTITLE16=eems Like A Dream
TTITLE17=Curtis Tipton, Darly Jones, Dan Holmes, Tim Messersmith, Tim 
TTITLE17=Duffy, Allen Stratyner, Mike Butler - Wadie Green
TTITLE18=Sheena Rachell, Craig "Redman" Smith, Al Stone, Guy Vreeman, 
TTITLE18=Jim Lynch, Mike Butler - Lake Michigan Blues
TTITLE19=Jean-Louis Mahjun - Cigarette Blues
TTITLE20=May Nell, Willia B, Sheena Rachell - Freedom
EXTD=
EXTT0=
EXTT1=
EXTT2=
EXTT3=
EXTT4=
EXTT5=
EXTT6=
EXTT7=
EXTT8=
EXTT9=
EXTT10=
EXTT11=
EXTT12=
EXTT13=
EXTT14=
EXTT15=
EXTT16=
EXTT17=
EXTT18=
EXTT19=
EXTT20=
PLAYORDER=
